<svg width="36" height="36" viewBox="0 0 36 36" fill="none" xmlns="http://www.w3.org/2000/svg">
<g id=" 24 / Bag">
<path id="Combined Shape" fill-rule="evenodd" clip-rule="evenodd" d="M18.7384 3.01042L17.991 3.00073C12.3479 3.00073 10.8073 4.53395 10.5438 9.38038H8.88497C7.09347 9.38038 5.54266 10.6433 5.35239 12.3806L3.02293 29.6489C2.79584 31.7029 4.48179 33.3804 6.55097 33.3804H29.447C31.5176 33.3804 33.2035 31.703 32.9809 29.6836L30.644 12.342C30.4553 10.6421 28.9065 9.38038 27.1175 9.38038H25.454C25.1969 4.75143 23.7834 3.14698 18.7384 3.01042ZM22.4615 9.38038C22.3325 6.3207 21.8077 6.01557 18.2912 6.0013L17.1194 6.00713C14.1329 6.05997 13.6522 6.49841 13.5354 9.38038H22.4615ZM27.1175 12.3804H8.88497C8.56626 12.3804 8.35116 12.5555 8.33001 12.7444L6.00042 30.0139C5.98307 30.1711 6.19341 30.3804 6.55097 30.3804H29.447C29.8061 30.3804 30.0165 30.171 30.0034 30.0482L27.6667 12.7083C27.6497 12.5557 27.4345 12.3804 27.1175 12.3804ZM22.5 18.3804C23.3284 18.3804 24 19.052 24 19.8804C24 23.9782 21.8388 25.8804 18 25.8804C14.1616 25.8804 12 23.9789 12 19.8804C12 19.052 12.6716 18.3804 13.5 18.3804C14.3284 18.3804 15 19.052 15 19.8804C15 22.2304 15.7389 22.8804 18 22.8804C20.2612 22.8804 21 22.2301 21 19.8804C21 19.052 21.6716 18.3804 22.5 18.3804Z" fill="#131313"/>
</g>
</svg>
