<svg width="36" height="36" viewBox="0 0 36 36" fill="none" xmlns="http://www.w3.org/2000/svg">
<g id=" 24 / Close">
<path id="Fill 1" fill-rule="evenodd" clip-rule="evenodd" d="M19.6969 17.9999L29.6485 8.04833C30.1177 7.57913 30.1177 6.82073 29.6485 6.35153C29.1793 5.88233 28.4209 5.88233 27.9517 6.35153L18.0001 16.3031L8.04852 6.35153C7.57932 5.88233 6.82092 5.88233 6.35172 6.35153C5.88252 6.82073 5.88252 7.57913 6.35172 8.04833L16.3033 17.9999L6.35172 27.9515C5.88252 28.4207 5.88252 29.1791 6.35172 29.6483C6.58572 29.8823 6.89292 29.9999 7.20012 29.9999C7.50732 29.9999 7.81452 29.8823 8.04852 29.6483L18.0001 19.6967L27.9517 29.6483C28.1857 29.8823 28.4929 29.9999 28.8001 29.9999C29.1073 29.9999 29.4145 29.8823 29.6485 29.6483C30.1177 29.1791 30.1177 28.4207 29.6485 27.9515L19.6969 17.9999Z" fill="#131313"/>
</g>
</svg>
