<svg width="36" height="36" viewBox="0 0 36 36" fill="none" xmlns="http://www.w3.org/2000/svg">
<g id=" 24 / Filter">
<path id="Combined Shape" fill-rule="evenodd" clip-rule="evenodd" d="M13.5004 4.5C10.1865 4.5 7.50043 7.18607 7.50043 10.5C7.50043 13.8139 10.1865 16.5 13.5004 16.5C16.8144 16.5 19.5004 13.8139 19.5004 10.5C19.5004 7.18607 16.8144 4.5 13.5004 4.5ZM13.5004 7.5C15.1575 7.5 16.5004 8.84293 16.5004 10.5C16.5004 12.1571 15.1575 13.5 13.5004 13.5C11.8434 13.5 10.5004 12.1571 10.5004 10.5C10.5004 8.84293 11.8434 7.5 13.5004 7.5ZM21.0004 10.4999C21.0004 11.0179 20.9184 11.5205 20.7641 11.9999H31.5004L31.6754 11.9898C32.4214 11.9032 33.0004 11.2692 33.0004 10.4999C33.0004 9.67149 32.3289 8.99991 31.5004 8.99991H20.7641C20.9184 9.47935 21.0004 9.98197 21.0004 10.4999ZM4.50043 11.9999H6.23677C6.08249 11.5205 6.00043 11.0179 6.00043 10.4999C6.00043 9.98197 6.08249 9.47935 6.23677 8.99991H4.50043L4.3255 9.01001C3.57949 9.09665 3.00043 9.73066 3.00043 10.4999C3.00043 11.3283 3.672 11.9999 4.50043 11.9999ZM15.236 26.9999C15.0817 26.5205 14.9997 26.0179 14.9997 25.4999C14.9997 24.982 15.0817 24.4794 15.236 23.9999H4.49968L4.32475 24.01C3.57874 24.0967 2.99968 24.7307 2.99968 25.4999C2.99968 26.3283 3.67125 26.9999 4.49968 26.9999H15.236ZM29.7634 26.9999H31.4997L31.6746 26.9898C32.4206 26.9032 32.9997 26.2692 32.9997 25.4999C32.9997 24.6715 32.3281 23.9999 31.4997 23.9999H29.7634C29.9177 24.4794 29.9997 24.982 29.9997 25.4999C29.9997 26.0179 29.9177 26.5205 29.7634 26.9999ZM22.4997 19.5C19.1868 19.5 16.4997 22.1865 16.4997 25.5C16.4997 28.8135 19.1868 31.5 22.4997 31.5C25.8136 31.5 28.4997 28.8139 28.4997 25.5C28.4997 22.1861 25.8136 19.5 22.4997 19.5ZM22.4997 22.5C24.1568 22.5 25.4997 23.8429 25.4997 25.5C25.4997 27.1571 24.1568 28.5 22.4997 28.5C20.8435 28.5 19.4997 27.1565 19.4997 25.5C19.4997 23.8435 20.8435 22.5 22.4997 22.5Z" fill="#131313"/>
</g>
</svg>
