<svg width="36" height="36" viewBox="0 0 36 36" fill="none" xmlns="http://www.w3.org/2000/svg">
<g id=" 24 / Menu">
<path id="Combined Shape" fill-rule="evenodd" clip-rule="evenodd" d="M19.5 10.5H4.5C3.672 10.5 3 9.828 3 9C3 8.172 3.672 7.5 4.5 7.5H19.5C20.328 7.5 21 8.172 21 9C21 9.828 20.328 10.5 19.5 10.5ZM31.5 19.5H4.5C3.672 19.5 3 18.828 3 18C3 17.172 3.672 16.5 4.5 16.5H31.5C32.328 16.5 33 17.172 33 18C33 18.828 32.328 19.5 31.5 19.5ZM4.5 28.4993H25.5C26.328 28.4993 27 27.8273 27 26.9993C27 26.1713 26.328 25.4993 25.5 25.4993H4.5C3.672 25.4993 3 26.1713 3 26.9993C3 27.8273 3.672 28.4993 4.5 28.4993Z" fill="#131313"/>
</g>
</svg>
