<svg width="36" height="36" viewBox="0 0 36 36" fill="none" xmlns="http://www.w3.org/2000/svg">
<g id=" 24 / Search ">
<path id="Combined Shape" fill-rule="evenodd" clip-rule="evenodd" d="M3 14.2496C3 8.03663 8.037 2.99963 14.25 2.99963C20.463 2.99963 25.5 8.03663 25.5 14.2496C25.5 20.4641 20.463 25.4996 14.25 25.4996C8.037 25.4996 3 20.4641 3 14.2496ZM22.5 14.2496C22.5 9.70013 18.7995 5.99963 14.25 5.99963C9.7005 5.99963 6 9.70013 6 14.2496C6 18.7991 9.7005 22.4996 14.25 22.4996C18.7995 22.4996 22.5 18.7991 22.5 14.2496ZM24.9193 22.8149C24.3309 22.3574 23.4801 22.399 22.9393 22.9397C22.3536 23.5255 22.3536 24.4753 22.9393 25.061L30.4393 32.561L30.5807 32.6858C31.1691 33.1434 32.0199 33.1018 32.5607 32.561C33.1464 31.9753 33.1464 31.0255 32.5607 30.4397L25.0607 22.9397L24.9193 22.8149Z" fill="#131313"/>
</g>
</svg>
