<svg width="36" height="36" viewBox="0 0 36 36" fill="none" xmlns="http://www.w3.org/2000/svg">
<g id=" 24 / Person ">
<path id="Combined Shape" fill-rule="evenodd" clip-rule="evenodd" d="M18.0003 3C13.0304 3 9.00034 7.03007 9.00034 12C9.00034 16.9699 13.0304 21 18.0003 21C20.1463 21 22.1171 20.2486 23.6638 18.9946C24.5217 19.2921 25.398 19.9355 26.7677 21.3981L27.3182 22.0002C28.799 23.6551 29.624 25.6232 29.9322 27.7641L29.9904 28.2203C30.0565 28.8177 30.0782 29.3712 30.0677 29.8811L30.063 29.9985H6.027L6.01277 29.81C5.96908 29.0042 6.01707 28.1622 6.1842 27.2787C6.42756 25.9878 6.87602 24.8727 7.45416 23.8841C7.87238 23.169 7.63171 22.2503 6.9166 21.832C6.20149 21.4138 5.28274 21.6545 4.86452 22.3696C4.12338 23.6368 3.54837 25.0667 3.23631 26.7219C2.89327 28.5354 2.94146 30.2108 3.23621 31.7772C3.36962 32.4862 3.98888 32.9999 4.71034 32.9999H31.4358L31.6053 32.9903C32.2736 32.9149 32.8193 32.3984 32.9197 31.7193C32.9849 31.2783 33.0343 30.7844 33.0554 30.17C33.0863 29.2659 33.0426 28.3156 32.9016 27.3366C32.5141 24.6452 31.4596 22.1295 29.5536 19.9996C28.0303 18.2976 26.856 17.2631 25.7157 16.636C26.5312 15.2819 27.0003 13.6957 27.0003 12C27.0003 7.03007 22.9703 3 18.0003 3ZM18.0003 6C21.3134 6 24.0003 8.68693 24.0003 12C24.0003 15.3131 21.3134 18 18.0003 18C14.6873 18 12.0003 15.3131 12.0003 12C12.0003 8.68693 14.6873 6 18.0003 6Z" fill="#131313"/>
</g>
</svg>
