<svg width="36" height="36" viewBox="0 0 36 36" fill="none" xmlns="http://www.w3.org/2000/svg">
<g id=" 24 / Sort">
<path id="Combined Shape" fill-rule="evenodd" clip-rule="evenodd" d="M25.6801 15.9309C25.9726 16.2234 26.3566 16.3704 26.7406 16.3704C27.1246 16.3704 27.5086 16.2234 27.8011 15.9309C28.3876 15.3444 28.3876 14.3964 27.8011 13.8099L18.9301 4.9389C18.3451 4.3539 17.3956 4.3539 16.8091 4.9389L7.93965 13.8099C7.35315 14.3964 7.35315 15.3444 7.93965 15.9309C8.52465 16.5174 9.47415 16.5174 10.0606 15.9309L17.8696 8.1204L25.6801 15.9309ZM16.8099 32.4309C17.1024 32.7234 17.4864 32.8704 17.8704 32.8704C18.2544 32.8704 18.6384 32.7234 18.9309 32.4309L27.8019 23.5599C28.3869 22.9749 28.3869 22.0254 27.8019 21.4389C27.2154 20.8539 26.2659 20.8539 25.6809 21.4389L17.8704 29.2494L10.0599 21.4389C9.4749 20.8539 8.5254 20.8539 7.9389 21.4389C7.3539 22.0254 7.3539 22.9749 7.9389 23.5599L16.8099 32.4309Z" fill="#131313"/>
</g>
</svg>
